<svg xmlns="http://www.w3.org/2000/svg" width="268" height="220" viewBox="0 0 268 220"><defs><style>.a{fill:#3f5ca7;}</style></defs><g transform="translate(-1599 13)"><circle class="a" cx="14" cy="14" r="14" transform="translate(1599 -13)"/><circle class="a" cx="14" cy="14" r="14" transform="translate(1647 -13)"/><circle class="a" cx="14" cy="14" r="14" transform="translate(1695 -13)"/><circle class="a" cx="14" cy="14" r="14" transform="translate(1743 -13)"/><circle class="a" cx="14" cy="14" r="14" transform="translate(1791 -13)"/><circle class="a" cx="14" cy="14" r="14" transform="translate(1839 -13)"/><circle class="a" cx="14" cy="14" r="14" transform="translate(1599 35)"/><circle class="a" cx="14" cy="14" r="14" transform="translate(1647 35)"/><circle class="a" cx="14" cy="14" r="14" transform="translate(1695 35)"/><circle class="a" cx="14" cy="14" r="14" transform="translate(1743 35)"/><circle class="a" cx="14" cy="14" r="14" transform="translate(1791 35)"/><circle class="a" cx="14" cy="14" r="14" transform="translate(1839 35)"/><circle class="a" cx="14" cy="14" r="14" transform="translate(1599 83)"/><circle class="a" cx="14" cy="14" r="14" transform="translate(1647 83)"/><circle class="a" cx="14" cy="14" r="14" transform="translate(1695 83)"/><circle class="a" cx="14" cy="14" r="14" transform="translate(1743 83)"/><circle class="a" cx="14" cy="14" r="14" transform="translate(1791 83)"/><circle class="a" cx="14" cy="14" r="14" transform="translate(1839 83)"/><circle class="a" cx="14" cy="14" r="14" transform="translate(1599 131)"/><circle class="a" cx="14" cy="14" r="14" transform="translate(1647 131)"/><circle class="a" cx="14" cy="14" r="14" transform="translate(1695 131)"/><circle class="a" cx="14" cy="14" r="14" transform="translate(1743 131)"/><circle class="a" cx="14" cy="14" r="14" transform="translate(1791 131)"/><circle class="a" cx="14" cy="14" r="14" transform="translate(1839 131)"/><circle class="a" cx="14" cy="14" r="14" transform="translate(1599 179)"/><circle class="a" cx="14" cy="14" r="14" transform="translate(1647 179)"/><circle class="a" cx="14" cy="14" r="14" transform="translate(1695 179)"/><circle class="a" cx="14" cy="14" r="14" transform="translate(1743 179)"/><circle class="a" cx="14" cy="14" r="14" transform="translate(1791 179)"/><circle class="a" cx="14" cy="14" r="14" transform="translate(1839 179)"/></g></svg>