<svg xmlns="http://www.w3.org/2000/svg" width="268" height="220" viewBox="0 0 268 220"><defs><style>.a{fill:#3f5ca7;}</style></defs><g transform="translate(-1099 -874)"><circle class="a" cx="14" cy="14" r="14" transform="translate(1099 874)"/><circle class="a" cx="14" cy="14" r="14" transform="translate(1147 874)"/><circle class="a" cx="14" cy="14" r="14" transform="translate(1195 874)"/><circle class="a" cx="14" cy="14" r="14" transform="translate(1243 874)"/><circle class="a" cx="14" cy="14" r="14" transform="translate(1291 874)"/><circle class="a" cx="14" cy="14" r="14" transform="translate(1339 874)"/><circle class="a" cx="14" cy="14" r="14" transform="translate(1099 922)"/><circle class="a" cx="14" cy="14" r="14" transform="translate(1147 922)"/><circle class="a" cx="14" cy="14" r="14" transform="translate(1195 922)"/><circle class="a" cx="14" cy="14" r="14" transform="translate(1243 922)"/><circle class="a" cx="14" cy="14" r="14" transform="translate(1291 922)"/><circle class="a" cx="14" cy="14" r="14" transform="translate(1339 922)"/><circle class="a" cx="14" cy="14" r="14" transform="translate(1099 970)"/><circle class="a" cx="14" cy="14" r="14" transform="translate(1147 970)"/><circle class="a" cx="14" cy="14" r="14" transform="translate(1195 970)"/><circle class="a" cx="14" cy="14" r="14" transform="translate(1243 970)"/><circle class="a" cx="14" cy="14" r="14" transform="translate(1291 970)"/><circle class="a" cx="14" cy="14" r="14" transform="translate(1339 970)"/><circle class="a" cx="14" cy="14" r="14" transform="translate(1099 1018)"/><circle class="a" cx="14" cy="14" r="14" transform="translate(1147 1018)"/><circle class="a" cx="14" cy="14" r="14" transform="translate(1195 1018)"/><circle class="a" cx="14" cy="14" r="14" transform="translate(1243 1018)"/><circle class="a" cx="14" cy="14" r="14" transform="translate(1291 1018)"/><circle class="a" cx="14" cy="14" r="14" transform="translate(1339 1018)"/><circle class="a" cx="14" cy="14" r="14" transform="translate(1099 1066)"/><circle class="a" cx="14" cy="14" r="14" transform="translate(1147 1066)"/><circle class="a" cx="14" cy="14" r="14" transform="translate(1195 1066)"/><circle class="a" cx="14" cy="14" r="14" transform="translate(1243 1066)"/><circle class="a" cx="14" cy="14" r="14" transform="translate(1291 1066)"/><circle class="a" cx="14" cy="14" r="14" transform="translate(1339 1066)"/></g></svg>