<svg xmlns="http://www.w3.org/2000/svg" width="458.381" height="91.671" viewBox="0 0 458.381 91.671"><defs><style>.a{fill:#ee7476;}.b{fill:#3f5ca7;}.c{fill:#fed178;}.d{fill:#54a6dc;}</style></defs><g transform="translate(-2166 -1371.685)"><path class="a" d="M176.7,125.367a3.993,3.993,0,0,0-1.556-3.384,20.41,20.41,0,0,0-5.6-2.49,39.711,39.711,0,0,1-6.406-2.58q-6.432-3.475-6.432-9.362a9.119,9.119,0,0,1,1.725-5.459,11.25,11.25,0,0,1,4.954-3.748,18.644,18.644,0,0,1,7.249-1.349,16.97,16.97,0,0,1,7.21,1.465,11.48,11.48,0,0,1,4.915,4.137,10.824,10.824,0,0,1,1.751,6.069h-7.78a5.092,5.092,0,0,0-1.634-4.033,6.717,6.717,0,0,0-4.59-1.439,7.176,7.176,0,0,0-4.435,1.206,3.8,3.8,0,0,0-1.582,3.177,3.643,3.643,0,0,0,1.854,3.086A20.95,20.95,0,0,0,171.8,113q6.639,2,9.674,4.954a9.865,9.865,0,0,1,3.034,7.365A9.087,9.087,0,0,1,180.8,133q-3.709,2.788-9.985,2.788a19.281,19.281,0,0,1-7.936-1.595,12.558,12.558,0,0,1-5.459-4.37,11.191,11.191,0,0,1-1.88-6.432h7.806q0,6.25,7.469,6.25a7.266,7.266,0,0,0,4.331-1.128,3.67,3.67,0,0,0,1.556-3.151Z" transform="translate(2112.833 1301.127)"/><path class="a" d="M195.5,105.981l.233,3.138a9.862,9.862,0,0,1,8.066-3.657q5.42,0,7.443,4.279a9.635,9.635,0,0,1,8.429-4.279q4.565,0,6.795,2.658t2.23,8v17.921h-7.521V116.148a5.343,5.343,0,0,0-.934-3.488,4.138,4.138,0,0,0-3.294-1.1,4.678,4.678,0,0,0-4.668,3.216l.026,19.27h-7.5V116.174a5.278,5.278,0,0,0-.96-3.527,4.178,4.178,0,0,0-3.268-1.089,4.857,4.857,0,0,0-4.616,2.645v19.84h-7.5V105.981Z" transform="translate(2117.624 1302.358)"/><path class="a" d="M248.5,134.044a8.322,8.322,0,0,1-.752-2.516,9.069,9.069,0,0,1-7.08,3.034,9.963,9.963,0,0,1-6.834-2.386,7.674,7.674,0,0,1-2.71-6.017,7.93,7.93,0,0,1,3.307-6.847q3.307-2.386,9.557-2.412h3.449v-1.608a4.624,4.624,0,0,0-1-3.112,3.928,3.928,0,0,0-3.151-1.167,4.465,4.465,0,0,0-2.97.908,3.084,3.084,0,0,0-1.076,2.49h-7.5a7.529,7.529,0,0,1,1.5-4.513,9.943,9.943,0,0,1,4.253-3.255,15.5,15.5,0,0,1,6.172-1.18,12.247,12.247,0,0,1,8.234,2.606,9.118,9.118,0,0,1,3.047,7.327V127.56a13.416,13.416,0,0,0,1.115,6.043v.441Zm-6.2-5.213a6.455,6.455,0,0,0,3.06-.739,4.855,4.855,0,0,0,2.075-1.984v-4.824h-2.8q-5.628,0-5.991,3.89l-.026.441a3,3,0,0,0,.986,2.308A3.828,3.828,0,0,0,242.3,128.831Z" transform="translate(2123.826 1302.357)"/><path class="a" d="M276.2,113.009a20.361,20.361,0,0,0-2.7-.207q-4.253,0-5.576,2.879v18.362h-7.5V105.98h7.08l.207,3.346a6.945,6.945,0,0,1,6.25-3.864,7.854,7.854,0,0,1,2.334.337Z" transform="translate(2128.09 1302.359)"/><path class="a" d="M291.264,99.892v6.9h4.8v5.5h-4.8v14a3.344,3.344,0,0,0,.6,2.23,3,3,0,0,0,2.282.674,11.951,11.951,0,0,0,2.2-.182v5.68a15.43,15.43,0,0,1-4.539.674q-7.884,0-8.04-7.962v-15.12h-4.1v-5.5h4.1v-6.9Z" transform="translate(2130.888 1301.549)"/><path class="a" d="M313.36,120.062l-4.046,4.357v10.789h-7.78V97.447h7.78v17.117l3.423-4.694,9.622-12.423h9.57l-13.408,16.78,13.8,20.981h-9.259Z" transform="translate(2134.068 1301.193)"/><path class="a" d="M350.419,134.044a8.325,8.325,0,0,1-.752-2.516,9.069,9.069,0,0,1-7.08,3.034,9.963,9.963,0,0,1-6.834-2.386,7.674,7.674,0,0,1-2.71-6.017,7.93,7.93,0,0,1,3.307-6.847q3.307-2.386,9.557-2.412h3.449v-1.608a4.624,4.624,0,0,0-1-3.112,3.928,3.928,0,0,0-3.151-1.167,4.466,4.466,0,0,0-2.969.908,3.084,3.084,0,0,0-1.076,2.49h-7.5a7.529,7.529,0,0,1,1.5-4.513,9.943,9.943,0,0,1,4.253-3.255,15.5,15.5,0,0,1,6.172-1.18,12.247,12.247,0,0,1,8.234,2.606,9.118,9.118,0,0,1,3.047,7.327V127.56a13.416,13.416,0,0,0,1.115,6.043v.441Zm-6.2-5.213a6.455,6.455,0,0,0,3.06-.739,4.855,4.855,0,0,0,2.075-1.984v-4.824h-2.8q-5.628,0-5.991,3.89l-.026.441a3,3,0,0,0,.986,2.308,3.828,3.828,0,0,0,2.7.908Z" transform="translate(2138.65 1302.357)"/><path class="a" d="M369.272,105.981l.233,3.242a9.8,9.8,0,0,1,8.066-3.761q4.461,0,6.639,2.619t2.23,7.832v18.128h-7.5V116.1a4.862,4.862,0,0,0-1.037-3.462,4.644,4.644,0,0,0-3.449-1.076,5.156,5.156,0,0,0-4.746,2.7v19.788h-7.5V105.981Z" transform="translate(2142.895 1302.358)"/><path class="a" d="M402.627,124.821l5.213-18.906h7.832l-9.466,28.061h-7.158l-9.466-28.061h7.832Z" transform="translate(2146.875 1302.425)"/><path class="a" d="M434.777,134.044a8.323,8.323,0,0,1-.752-2.516,9.069,9.069,0,0,1-7.08,3.034,9.963,9.963,0,0,1-6.834-2.386,7.674,7.674,0,0,1-2.71-6.017,7.93,7.93,0,0,1,3.307-6.847q3.307-2.386,9.557-2.412h3.449v-1.608a4.624,4.624,0,0,0-1-3.112,3.928,3.928,0,0,0-3.151-1.167,4.466,4.466,0,0,0-2.97.908,3.084,3.084,0,0,0-1.076,2.49h-7.5a7.529,7.529,0,0,1,1.5-4.513,9.943,9.943,0,0,1,4.253-3.255,15.5,15.5,0,0,1,6.172-1.18,12.247,12.247,0,0,1,8.234,2.606,9.118,9.118,0,0,1,3.047,7.327V127.56a13.415,13.415,0,0,0,1.115,6.043v.441Zm-6.2-5.213a6.455,6.455,0,0,0,3.06-.739,4.854,4.854,0,0,0,2.075-1.984v-4.824h-2.8q-5.628,0-5.991,3.89l-.026.441a3,3,0,0,0,.986,2.308,3.828,3.828,0,0,0,2.7.908Z" transform="translate(2150.92 1302.357)"/><path class="a" d="M462.09,126.289a2.415,2.415,0,0,0-1.362-2.166,15.465,15.465,0,0,0-4.37-1.413q-10.011-2.1-10.011-8.507a7.71,7.71,0,0,1,3.1-6.237,12.5,12.5,0,0,1,8.1-2.5,13.456,13.456,0,0,1,8.545,2.516,7.928,7.928,0,0,1,3.2,6.536h-7.5a3.627,3.627,0,0,0-1.037-2.658,4.39,4.39,0,0,0-3.242-1.05,4.486,4.486,0,0,0-2.931.856,2.7,2.7,0,0,0-1.037,2.179,2.31,2.31,0,0,0,1.18,2.01,12.141,12.141,0,0,0,3.981,1.323,32.512,32.512,0,0,1,4.72,1.258q5.939,2.179,5.939,7.547a7.32,7.32,0,0,1-3.294,6.211,14.208,14.208,0,0,1-8.507,2.373,14.84,14.84,0,0,1-6.263-1.258,10.509,10.509,0,0,1-4.292-3.449,8.015,8.015,0,0,1-1.556-4.733h7.106a3.913,3.913,0,0,0,1.478,3.06,5.863,5.863,0,0,0,3.683,1.063,5.427,5.427,0,0,0,3.255-.817,2.542,2.542,0,0,0,1.1-2.14Z" transform="translate(2155.003 1302.357)"/><rect class="b" width="30.426" height="91.671" transform="translate(2166 1371.685)"/><path class="a" d="M137.856,133.579v15.287L121.83,159.058H97.59V118.791h25.479a14.79,14.79,0,0,1,14.788,14.784Z" transform="translate(2104.405 1304.298)"/><path class="c" d="M68.612,71.133,52.586,81.324V71.133Z" transform="translate(2173.649 1382.031)"/><path class="d" d="M77.624,7.182H47.2L26.562,44.773H56.989Z" transform="translate(2169.864 1372.73)"/></g></svg>