<?xml version="1.0" encoding="utf-8"?>
<svg version="1.1" xmlns:xlink="http://www.w3.org/1999/xlink" width="81px" height="80px" xmlns="http://www.w3.org/2000/svg">
  <g transform="matrix(1 0 0 1 -211 -247 )">
    <path d="M 80.7986505681818 61.1197916666668  C 80.9328835227272 62.8732638888891  81 64.6701388888891  81 66.5104166666668  C 81 70.6770833333332  79.6001420454546 73.9670138888891  76.8004261363637 76.3802083333332  C 74.0007102272728 78.7934027777778  70.2805397727272 80  65.6399147727273 80  L 15.3600852272727 80  C 10.7194602272728 80  6.99928977272724 78.7934027777778  4.19957386363632 76.3802083333332  C 1.3998579545454 73.9670138888891  0 70.6770833333332  0 66.5104166666668  C 0 64.6701388888891  0.067116477272755 62.8732638888891  0.201349431818155 61.1197916666668  C 0.335582386363686 59.3663194444445  0.604048295454611 57.4739583333332  1.00674715909092 55.4427083333332  C 1.40944602272723 53.4114583333332  1.91761363636369 51.5277777777778  2.53125 49.7916666666668  C 3.14488636363632 48.0555555555555  3.96946022727277 46.3628472222222  5.00497159090908 44.7135416666668  C 6.0404829545454 43.0642361111109  7.22940340909092 41.6579861111109  8.5717329545454 40.4947916666668  C 9.91406249999999 39.3315972222222  11.5536221590909 38.4027777777778  13.4904119318182 37.7083333333332  C 15.4272017045454 37.0138888888891  17.5653409090909 36.6666666666668  19.9048295454546 36.6666666666668  C 20.25 36.6666666666668  21.0553977272728 37.0399305555555  22.3210227272728 37.7864583333332  C 23.5866477272728 38.5329861111109  25.0152698863637 39.3663194444445  26.6068892045454 40.2864583333332  C 28.1985085227272 41.2065972222222  30.26953125 42.0399305555555  32.8199573863637 42.7864583333332  C 35.3703835227273 43.5329861111109  37.9303977272728 43.90625  40.5 43.90625  C 43.0696022727272 43.90625  45.6296164772728 43.5329861111109  48.1800426136363 42.7864583333332  C 50.73046875 42.0399305555555  52.8014914772728 41.2065972222222  54.3931107954546 40.2864583333332  C 55.9847301136363 39.3663194444445  57.4133522727273 38.5329861111109  58.6789772727273 37.7864583333332  C 59.9446022727273 37.0399305555555  60.75 36.6666666666668  61.0951704545454 36.6666666666668  C 63.4346590909091 36.6666666666668  65.5727982954546 37.0138888888891  67.5095880681819 37.7083333333332  C 69.4463778409091 38.4027777777778  71.0859375 39.3315972222222  72.4282670454545 40.4947916666668  C 73.7705965909091 41.6579861111109  74.9595170454545 43.0642361111109  75.9950284090909 44.7135416666668  C 77.0305397727273 46.3628472222222  77.8551136363637 48.0555555555555  78.46875 49.7916666666668  C 79.0823863636363 51.5277777777778  79.5905539772727 53.4114583333332  79.9932528409091 55.4427083333332  C 80.3959517045455 57.4739583333332  80.6644176136363 59.3663194444445  80.7986505681818 61.1197916666668  Z M 56.1189630681819 5.859375  C 60.43359375 9.765625  62.5909090909091 14.4791666666668  62.5909090909091 20  C 62.5909090909091 25.5208333333332  60.43359375 30.234375  56.1189630681819 34.140625  C 51.8043323863637 38.046875  46.5980113636363 40  40.5 40  C 34.4019886363637 40  29.1956676136363 38.046875  24.8810369318182 34.140625  C 20.56640625 30.234375  18.4090909090909 25.5208333333332  18.4090909090909 20  C 18.4090909090909 14.4791666666668  20.56640625 9.765625  24.8810369318182 5.859375  C 29.1956676136363 1.953125  34.4019886363637 0  40.5 0  C 46.5980113636363 0  51.8043323863637 1.953125  56.1189630681819 5.859375  Z " fill-rule="nonzero" fill="#fed178" stroke="none" transform="matrix(1 0 0 1 211 247 )" />
  </g>
</svg>