<svg xmlns="http://www.w3.org/2000/svg" width="190.033" height="155.512" viewBox="0 0 190.033 155.512"><defs><style>.a{fill:#e6e6e6;}.b{fill:#2f2e41;}.c{fill:#3f3d56;}.d{fill:#fff;}.e{fill:#ee7476;}</style></defs><g transform="translate(-61.967)"><ellipse class="a" cx="64.131" cy="4.871" rx="64.131" ry="4.871" transform="translate(92.079 145.77)"/><path class="b" d="M582.561,626.2H404.471a5.971,5.971,0,0,1-5.971-5.971h0a804.939,804.939,0,0,1,190.033,0h0a5.971,5.971,0,0,1-5.971,5.971Z" transform="translate(-336.533 -474.628)"/><path class="c" d="M588.533,361.182,398.5,360.831l22.024-37.058.105-.176V241.925a7.548,7.548,0,0,1,7.549-7.549H557.8a7.548,7.548,0,0,1,7.549,7.549v82.233Z" transform="translate(-336.533 -215.233)"/><path class="d" d="M486.071,250.957a2.462,2.462,0,0,0-2.459,2.459v74.468a2.462,2.462,0,0,0,2.459,2.459H617.092a2.462,2.462,0,0,0,2.459-2.459V253.415a2.462,2.462,0,0,0-2.459-2.459Z" transform="translate(-394.598 -226.544)"/><path class="b" d="M476.246,531.718a1.057,1.057,0,0,0-.957.613L468.5,547.084a1.054,1.054,0,0,0,.957,1.494H612.173a1.054,1.054,0,0,0,.942-1.525L605.739,532.3a1.049,1.049,0,0,0-.942-.583Z" transform="translate(-384.224 -418.085)"/><ellipse class="d" cx="1.581" cy="1.581" rx="1.581" ry="1.581" transform="translate(154.876 20.022)"/><path class="b" d="M645.783,593.619a1.055,1.055,0,0,0-1.017.78l-1.7,6.323a1.054,1.054,0,0,0,1.017,1.328h32.374a1.054,1.054,0,0,0,1-1.4l-2.189-6.323a1.054,1.054,0,0,0-1-.709Z" transform="translate(-503.354 -460.315)"/><path class="b" d="M409.131,337.135v1.4H264.306l.109-.175v-1.229Z" transform="translate(-180.315 -230)"/><ellipse class="e" cx="24.588" cy="24.588" rx="24.588" ry="24.588" transform="translate(200.189 0)"/><path class="d" d="M896.136,252.8H875.763a1.407,1.407,0,0,1-1.405-1.405V239.1a1.407,1.407,0,0,1,1.405-1.405h20.373a1.407,1.407,0,0,1,1.405,1.405v12.294A1.407,1.407,0,0,1,896.136,252.8Zm-20.373-13.7v12.294h20.374V239.1Z" transform="translate(-661.172 -217.495)"/><path class="d" d="M903.583,214.966H890.938v-5.62c0-4.071,2.659-7.025,6.323-7.025s6.323,2.954,6.323,7.025Zm-11.24-1.405h9.835v-4.215c0-3.309-2.022-5.62-4.918-5.62s-4.918,2.311-4.918,5.62Z" transform="translate(-672.484 -193.364)"/><ellipse class="d" cx="1.405" cy="1.405" rx="1.405" ry="1.405" transform="translate(223.372 25.993)"/><path class="a" d="M635.412,359.309H534.154a1.877,1.877,0,0,1-1.875-1.875V332.316a1.877,1.877,0,0,1,1.875-1.875H635.412a1.877,1.877,0,0,1,1.875,1.875v25.118A1.877,1.877,0,0,1,635.412,359.309ZM534.154,331.191a1.126,1.126,0,0,0-1.125,1.125v25.118a1.126,1.126,0,0,0,1.125,1.125H635.412a1.126,1.126,0,0,0,1.125-1.125V332.316a1.126,1.126,0,0,0-1.125-1.125Z" transform="translate(-427.8 -280.77)"/><ellipse class="a" cx="7.638" cy="7.638" rx="7.638" ry="7.638" transform="translate(114.45 55.503)"/><path class="a" d="M640.47,356.8a1.273,1.273,0,1,0,0,2.546h60.015a1.273,1.273,0,1,0,0-2.546Z" transform="translate(-500.741 -298.756)"/><path class="a" d="M640.47,380.842a1.273,1.273,0,1,0,0,2.546h25.825a1.273,1.273,0,0,0,0-2.546Z" transform="translate(-500.741 -315.154)"/></g></svg>