<svg xmlns="http://www.w3.org/2000/svg" width="156" height="140.037" viewBox="0 0 156 140.037"><defs><style>.a{fill:#3f3d56;}.b{fill:#e6e6e6;}.c{fill:#fed178;}.d{fill:#fff;}</style></defs><g transform="translate(0 0)"><path class="a" d="M473.989,247.715a.273.273,0,0,1-.156-.049l-75.69-52.712a1.373,1.373,0,0,0-1.568,0L321.43,247.666a.274.274,0,1,1-.314-.448l75.145-52.709a1.922,1.922,0,0,1,2.195,0l75.69,52.712a.274.274,0,0,1-.157.5Z" transform="translate(-319.357 -194.163)"/><path class="b" d="M23.264,61.464,94.973,8.319l72.253,56.926L98.667,105.887,61.446,97.4Z" transform="translate(-16.897 -6.043)"/><path class="c" d="M390.849,641.919H355.423a1.655,1.655,0,1,1,0-3.31h35.426a1.655,1.655,0,1,1,0,3.31Z" transform="translate(-343.158 -516.971)"/><path class="c" d="M368.133,615.919h-12.71a1.655,1.655,0,1,1,0-3.31h12.71a1.655,1.655,0,1,1,0,3.31Z" transform="translate(-343.158 -498.087)"/><path class="d" d="M484.51,298.2a2.07,2.07,0,0,1-.785-.154L439.5,279.692V222.253a1.918,1.918,0,0,1,1.916-1.916h84.842a1.918,1.918,0,0,1,1.916,1.916v57.479l-.083.036-42.771,18.266A2.084,2.084,0,0,1,484.51,298.2Z" transform="translate(-405.426 -213.174)"/><path class="a" d="M484.147,297.97a2.209,2.209,0,0,1-.837-.164L439,279.42V221.89a2.055,2.055,0,0,1,2.053-2.053h84.842a2.055,2.055,0,0,1,2.053,2.053v57.57L485.01,297.8A2.219,2.219,0,0,1,484.147,297.97Zm-44.6-18.915L483.518,297.3a1.674,1.674,0,0,0,1.278-.008L527.4,279.1V221.89a1.507,1.507,0,0,0-1.505-1.505H441.053a1.507,1.507,0,0,0-1.505,1.505Z" transform="translate(-405.063 -212.811)"/><path class="a" d="M469.084,387.837h-.055l-31.419,13.416-42.988,18.356a1.386,1.386,0,0,1-1.062.005l-44.35-18.4L317.02,387.859l-.049-.022h-.055A1.918,1.918,0,0,0,315,389.753v83.2a1.918,1.918,0,0,0,1.916,1.916H469.084A1.918,1.918,0,0,0,471,472.953v-83.2A1.918,1.918,0,0,0,469.084,387.837Zm1.368,85.116a1.369,1.369,0,0,1-1.368,1.368H316.916a1.369,1.369,0,0,1-1.368-1.368v-83.2a1.371,1.371,0,0,1,1.316-1.368l32.347,13.421,44.14,18.315a1.949,1.949,0,0,0,1.489-.008l42.771-18.266,31.528-13.463a1.373,1.373,0,0,1,1.314,1.368Z" transform="translate(-315 -334.832)"/><path class="c" d="M536.976,298.845a7.526,7.526,0,0,1-4.528-1.5l-.081-.061-17.054-13.057a7.576,7.576,0,1,1,9.216-12.028l11.046,8.47,26.1-34.043a7.576,7.576,0,0,1,10.623-1.4l-.162.22.167-.217a7.585,7.585,0,0,1,1.4,10.623L543,295.889a7.579,7.579,0,0,1-6.028,2.957Z" transform="translate(-458.334 -230.111)"/></g></svg>